{"asset":{"version":"2.0","generator":"Blockbench 4.10.3 glTF exporter"},"scenes":[{"nodes":[4],"name":"blockbench_export"}],"scene":0,"nodes":[{"name":"cuboid","mesh":0},{"translation":[0,0.69375,-0.4375],"name":"cuboid","mesh":1},{"translation":[0,0.8125,-0.3125],"name":"cuboid","mesh":2},{"translation":[0,0.75,-0.359375],"name":"cuboid","mesh":3},{"children":[0,1,2,3]}],"bufferViews":[{"buffer":0,"byteOffset":0,"byteLength":13152,"target":34962,"byteStride":12},{"buffer":0,"byteOffset":13152,"byteLength":13152,"target":34962,"byteStride":12},{"buffer":0,"byteOffset":26304,"byteLength":8768,"target":34962,"byteStride":8},{"buffer":0,"byteOffset":35072,"byteLength":3228,"target":34963},{"buffer":0,"byteOffset":38300,"byteLength":288,"target":34962,"byteStride":12},{"buffer":0,"byteOffset":38588,"byteLength":288,"target":34962,"byteStride":12},{"buffer":0,"byteOffset":38876,"byteLength":192,"target":34962,"byteStride":8},{"buffer":0,"byteOffset":39068,"byteLength":72,"target":34963},{"buffer":0,"byteOffset":39140,"byteLength":288,"target":34962,"byteStride":12},{"buffer":0,"byteOffset":39428,"byteLength":288,"target":34962,"byteStride":12},{"buffer":0,"byteOffset":39716,"byteLength":192,"target":34962,"byteStride":8},{"buffer":0,"byteOffset":39908,"byteLength":72,"target":34963},{"buffer":0,"byteOffset":39980,"byteLength":288,"target":34962,"byteStride":12},{"buffer":0,"byteOffset":40268,"byteLength":288,"target":34962,"byteStride":12},{"buffer":0,"byteOffset":40556,"byteLength":192,"target":34962,"byteStride":8},{"buffer":0,"byteOffset":40748,"byteLength":72,"target":34963}],"buffers":[{"byteLength":40820,"uri":"data:application/octet-stream;base64,"}],"accessors":[{"bufferView":0,"componentType":5126,"count":1096,"max":[0.375,1.0625,0.4375],"min":[-0.375,-0.34375,-0.625],"type":"VEC3"},{"bufferView":1,"componentType":5126,"count":1096,"max":[1,1,1],"min":[-1,-1,-1],"type":"VEC3"},{"bufferView":2,"componentType":5126,"count":1096,"max":[0.640625,0.625],"min":[0,0],"type":"VEC2"},{"bufferView":3,"componentType":5123,"count":1614,"max":[1095],"min":[0],"type":"SCALAR"},{"bufferView":4,"componentType":5126,"count":24,"max":[0.03125,0.265625,0.03125],"min":[-0.03125,0.234375,-0.03125],"type":"VEC3"},{"bufferView":5,"componentType":5126,"count":24,"max":[0.9196009635925293,1,1],"min":[-0.9196009635925293,-1,-0.8574929237365723],"type":"VEC3"},{"bufferView":6,"componentType":5126,"count":24,"max":[0.31505000591278076,0.25],"min":[0,0],"type":"VEC2"},{"bufferView":7,"componentType":5123,"count":36,"max":[23],"min":[0],"type":"SCALAR"},{"bufferView":8,"componentType":5126,"count":24,"max":[0.03125,0.28125,0.05000000074505806],"min":[-0.03125,0.15625,-0.05000000074505806],"type":"VEC3"},{"bufferView":9,"componentType":5126,"count":24,"max":[0.9934783577919006,0.986393928527832,0.9938837289810181],"min":[-0.9934783577919006,-0.847998321056366,-0.9805806875228882],"type":"VEC3"},{"bufferView":10,"componentType":5126,"count":24,"max":[0.4375,0.375],"min":[0,0],"type":"VEC2"},{"bufferView":11,"componentType":5123,"count":36,"max":[23],"min":[0],"type":"SCALAR"},{"bufferView":12,"componentType":5126,"count":24,"max":[0.0625,0.27031248807907104,0.0234375],"min":[-0.0625,0.22968749701976776,-0.0234375],"type":"VEC3"},{"bufferView":13,"componentType":5126,"count":24,"max":[1,1,1],"min":[-1,-1,-1],"type":"VEC3"},{"bufferView":14,"componentType":5126,"count":24,"max":[0.3125,0.3125],"min":[0,0],"type":"VEC2"},{"bufferView":15,"componentType":5123,"count":36,"max":[23],"min":[0],"type":"SCALAR"}],"materials":[{"pbrMetallicRoughness":{"metallicFactor":0,"roughnessFactor":1,"baseColorTexture":{"index":0}},"alphaMode":"MASK","alphaCutoff":0.05,"doubleSided":true},{"pbrMetallicRoughness":{"metallicFactor":0,"roughnessFactor":1,"baseColorTexture":{"index":1}},"alphaMode":"MASK","alphaCutoff":0.05,"doubleSided":true},{"pbrMetallicRoughness":{"metallicFactor":0,"roughnessFactor":1,"baseColorTexture":{"index":2}},"alphaMode":"MASK","alphaCutoff":0.05,"doubleSided":true},{"pbrMetallicRoughness":{"metallicFactor":0,"roughnessFactor":1,"baseColorTexture":{"index":3}},"alphaMode":"MASK","alphaCutoff":0.05,"doubleSided":true}],"textures":[{"sampler":0,"source":0,"name":"texture"},{"sampler":1,"source":1,"name":"texture"},{"sampler":2,"source":2,"name":"texture"},{"sampler":3,"source":3,"name":"texture"}],"samplers":[{"magFilter":9728,"minFilter":9728,"wrapS":33071,"wrapT":33071},{"magFilter":9728,"minFilter":9728,"wrapS":33071,"wrapT":33071},{"magFilter":9728,"minFilter":9728,"wrapS":33071,"wrapT":33071},{"magFilter":9728,"minFilter":9728,"wrapS":33071,"wrapT":33071}],"images":[{"mimeType":"image/png","uri":"data:image/png;base64,"},{"mimeType":"image/png","uri":"data:image/png;base64,"},{"mimeType":"image/png","uri":"data:image/png;base64,"},{"mimeType":"image/png","uri":"data:image/png;base64,"}],"meshes":[{"primitives":[{"mode":4,"attributes":{"POSITION":0,"NORMAL":1,"TEXCOORD_0":2},"indices":3,"material":0}]},{"primitives":[{"mode":4,"attributes":{"POSITION":4,"NORMAL":5,"TEXCOORD_0":6},"indices":7,"material":1}]},{"primitives":[{"mode":4,"attributes":{"POSITION":8,"NORMAL":9,"TEXCOORD_0":10},"indices":11,"material":2}]},{"primitives":[{"mode":4,"attributes":{"POSITION":12,"NORMAL":13,"TEXCOORD_0":14},"indices":15,"material":3}]}]}